<?xml version="1.0" encoding="UTF-8" standalone="no"?>
<!-- Created with Inkscape (http://www.inkscape.org/) -->

<svg
   xmlns:dc="http://purl.org/dc/elements/1.1/"
   xmlns:cc="http://creativecommons.org/ns#"
   xmlns:rdf="http://www.w3.org/1999/02/22-rdf-syntax-ns#"
   xmlns:svg="http://www.w3.org/2000/svg"
   xmlns="http://www.w3.org/2000/svg"
   xmlns:inkscape="http://www.inkscape.org/namespaces/inkscape"
   version="1.1"
   id="svg2"
   viewBox="0 0 444.51251 295.97501"
   xml:space="preserve"><metadata
     id="metadata8"><rdf:RDF><cc:Work
         rdf:about=""><dc:format>image/svg+xml</dc:format><dc:type
           rdf:resource="http://purl.org/dc/dcmitype/StillImage" /></cc:Work></rdf:RDF></metadata><defs
     id="defs6"><clipPath
       id="clipPath18"><path
         d="m 0,0 3556,0 0,2367.84 -3556,0 L 0,0 z"
         inkscape:connector-curvature="0"
         id="path20" /></clipPath></defs><g
     transform="matrix(1.25,0,0,-1.25,0,295.975)"
     id="g10"><g
       transform="scale(0.1,0.1)"
       id="g12"><g
         id="g14"><g
           clip-path="url(#clipPath18)"
           id="g16"><path
             d="M 2593.09,2170 C 2167.74,2170 1588.82,2311.81 974.457,2359.07 360.059,2406.35 0,2247.05 0,2247.05 L 0,77.0508 c 0,0 360.059,159.3012 974.457,112.0272 C 1588.82,141.809 2167.74,0 2593.09,0 c 425.3,0 962.98,124.199 962.98,124.199 l 0,2170.001 c 0,0 -537.68,-124.2 -962.98,-124.2"
             inkscape:connector-curvature="0"
             id="path22"
             style="fill:#052340;fill-opacity:1;fill-rule:nonzero;stroke:none" /><path
             d="m 1456.32,1141.26 359.46,0 c 87.97,0 159.47,-70.23 159.47,-158.26 0,-87.969 -71.5,-159.531 -159.47,-159.531 l -359.46,0 0,317.791 z m 0,405.17 349.27,0 c 61.13,0 111,-49.74 111,-110.94 0,-61.26 -49.87,-110.99 -111,-110.99 l -349.27,0 0,221.93 z m -732.175,-405.17 549.015,0 0,-500.951 542.62,0 c 179.3,0 326.54,138.48 341.19,313.992 87.54,-191.481 280.41,-325.031 504.28,-325.031 134.44,0 257.74,47.992 353.84,127.878 l -117.68,140.18 c -64.22,-53 -146.52,-84.898 -236.16,-84.898 -204.82,0 -371.46,166.648 -371.46,371.52 0,204.82 166.64,371.4 371.46,371.4 89.64,0 171.94,-31.83 236.16,-84.89 l 116.41,141.33 c -95.91,79.21 -218.74,126.78 -352.57,126.78 -305.81,0 -554.62,-248.76 -554.62,-554.62 0,-7.46 0.84,-14.71 1.08,-22.06 -20.14,32.86 -45.64,62.16 -75.36,86.46 42.02,50.88 67.34,116.06 67.34,187.14 0,162.12 -131.91,294.16 -294.1,294.16 l -532.43,0 0,-405.15 -549.015,0 0,405.15 -183.165,0 0,-1089.341 183.165,0 0,500.951"
             inkscape:connector-curvature="0"
             id="path24"
             style="fill:#ffffff;fill-opacity:1;fill-rule:nonzero;stroke:none" /></g></g></g></g></svg>