<svg width="100%" height="100%" viewBox="0 0 1440 1024" preserveAspectRatio="none" fill="none"
  xmlns="http://www.w3.org/2000/svg">
  <g clip-path="url(#clip0_15963_3354)">
    <g opacity="0.15" filter="url(#filter0_d_15963_3354)">
      <path fill-rule="evenodd" clip-rule="evenodd"
        d="M240.461 1201.2C183.572 1229.33 128.616 1266.68 65.9359 1256.73C-2.63342 1245.85 -72.7896 1210.04 -101.624 1146.89C-129.14 1086.62 -96.0601 1019.33 -70.3261 958.278C-49.059 907.826 -13.2835 869.969 29.5045 835.81C83.7649 792.492 139.527 714.868 204.749 738.674C270.67 762.735 243.7 866.484 279.271 926.975C315.488 988.565 419.497 1016.1 409.485 1086.84C399.575 1156.86 303.85 1169.85 240.461 1201.2Z"
        fill="url(#paint0_linear_15963_3354)" />
    </g>
    <path opacity="0.15"
      d="M1187 161.335C1109 54.1354 1017.17 4.66876 981 -6.66457C1036.33 -44.9979 1150.2 -122.265 1163 -124.665C1175.8 -127.065 1389.67 -115.998 1495 -110.165L1544.5 36.8354C1542.33 191.669 1521.7 493.035 1456.5 459.835C1375 418.335 1284.5 295.335 1187 161.335Z"
      fill="url(#paint1_linear_15963_3354)" />
    <path opacity="0.15"
      d="M1167 172.335C1089 65.1354 997.167 15.6688 961 4.33543C1016.33 -33.9979 1130.2 -111.265 1143 -113.665C1155.8 -116.065 1369.67 -104.998 1475 -99.1646L1524.5 47.8354C1522.33 202.669 1501.7 504.035 1436.5 470.835C1355 429.335 1264.5 306.335 1167 172.335Z"
      stroke="url(#paint2_linear_15963_3354)" />
  </g>
  <defs>
    <filter id="filter0_d_15963_3354" x="-175.998" y="664.233" width="650.158" height="652.143"
      filterUnits="userSpaceOnUse" color-interpolation-filters="sRGB">
      <feFlood flood-opacity="0" result="BackgroundImageFix" />
      <feColorMatrix in="SourceAlpha" type="matrix" values="0 0 0 0 0 0 0 0 0 0 0 0 0 0 0 0 0 0 127 0"
        result="hardAlpha" />
      <feOffset dy="-6" />
      <feGaussianBlur stdDeviation="32" />
      <feComposite in2="hardAlpha" operator="out" />
      <feColorMatrix type="matrix" values="0 0 0 0 0.372549 0 0 0 0 0 0 0 0 0 0.709804 0 0 0 0.25 0" />
      <feBlend mode="normal" in2="BackgroundImageFix" result="effect1_dropShadow_15963_3354" />
      <feBlend mode="normal" in="SourceGraphic" in2="effect1_dropShadow_15963_3354" result="shape" />
    </filter>
    <linearGradient id="paint0_linear_15963_3354" x1="83.6465" y1="1387.96" x2="147.501" y2="591.457"
      gradientUnits="userSpaceOnUse">
      <stop stop-color="#DFCCF0" />
      <stop offset="1" stop-color="#9F66D3" />
    </linearGradient>
    <linearGradient id="paint1_linear_15963_3354" x1="1497.54" y1="-210.658" x2="903.084" y2="573.506"
      gradientUnits="userSpaceOnUse">
      <stop stop-color="#DFCCF0" />
      <stop offset="1" stop-color="#9F66D3" />
    </linearGradient>
    <linearGradient id="paint2_linear_15963_3354" x1="1477.54" y1="-199.658" x2="883.084" y2="584.506"
      gradientUnits="userSpaceOnUse">
      <stop stop-color="#DFCCF0" />
      <stop offset="1" stop-color="#9F66D3" />
    </linearGradient>
    <clipPath id="clip0_15963_3354">
      <rect width="1440" height="1024" fill="white" />
    </clipPath>
  </defs>
</svg>