<svg width="100%" height="100%" viewBox="0 0 1440 1024" preserveAspectRatio="none" fill="none"
  xmlns="http://www.w3.org/2000/svg">
  <g clip-path="url(#clip0_15976_4375)">
    <g opacity="0.2" filter="url(#filter0_d_15976_4375)">
      <path fill-rule="evenodd" clip-rule="evenodd"
        d="M-132.929 827.314C-225.848 892.496 -375.17 930.168 -374.637 1051.06C-374.105 1171.81 -229.578 1233.11 -130.849 1299.47C-60.7749 1346.57 16.5275 1354.23 97.1266 1368.16C198.735 1385.71 308.15 1446.7 392.068 1389.82C483.978 1327.52 547.585 1198.56 518.221 1082.73C490.378 972.9 350.742 957.182 264.547 886.795C200.466 834.466 163.4 740.548 84.7828 728.783C1.34502 716.297 -64.8877 779.583 -132.929 827.314Z"
        fill="url(#paint0_linear_15976_4375)" />
    </g>
    <path opacity="0.15" fill-rule="evenodd" clip-rule="evenodd"
      d="M1764.16 -210.381C1838.51 -72.4003 1852.74 77.6354 1833.75 200.805C1813.9 329.546 1769.88 462.227 1661.61 454.755C1559.66 447.719 1472.88 272.782 1373.15 169.018C1267.72 59.3228 1105.6 -2.79874 1076.94 -153.562C1048.26 -304.366 1189.97 -317.747 1268.96 -378.942C1331.53 -427.42 1386.16 -493.48 1476.15 -462.849C1580.4 -427.363 1693.14 -342.179 1764.16 -210.381Z"
      fill="url(#paint1_linear_15976_4375)" />
    <path opacity="0.15"
      d="M978.075 97.2012C895.388 70.6447 655.905 3.53279 553.54 -28.9503C539.62 -33.3675 540.214 -51.32 554.246 -55.4134L1611.62 -363.884C1614.15 -364.623 1616.74 -364.727 1619.31 -364.142C1882.82 -304.156 2404.24 -169.609 2412.04 -104.124C2421.83 -21.8666 2342.56 113.043 2293.17 189.219C2243.78 265.396 2032.9 432.1 1818.61 521.971C1664.82 586.47 1381.33 485.002 1189.24 374.208C1039.5 287.844 1171.32 159.264 978.075 97.2012Z"
      fill="url(#paint2_linear_15976_4375)" />
    <g opacity="0.15" filter="url(#filter1_d_15976_4375)">
      <path fill-rule="evenodd" clip-rule="evenodd"
        d="M-132.929 894.314C-225.848 959.496 -375.17 997.168 -374.637 1118.06C-374.105 1238.81 -229.578 1300.11 -130.849 1366.47C-60.7749 1413.57 16.5275 1421.23 97.1266 1435.16C198.735 1452.71 308.15 1513.7 392.068 1456.82C483.978 1394.52 547.585 1265.56 518.221 1149.73C490.378 1039.9 350.742 1024.18 264.547 953.795C200.466 901.466 163.4 807.548 84.7828 795.783C1.34502 783.297 -64.8877 846.583 -132.929 894.314Z"
        fill="url(#paint3_linear_15976_4375)" />
    </g>
  </g>
  <defs>
    <filter id="filter0_d_15976_4375" x="-459.639" y="657.184" width="1060.09" height="846.365"
      filterUnits="userSpaceOnUse" color-interpolation-filters="sRGB">
      <feFlood flood-opacity="0" result="BackgroundImageFix" />
      <feColorMatrix in="SourceAlpha" type="matrix" values="0 0 0 0 0 0 0 0 0 0 0 0 0 0 0 0 0 0 127 0"
        result="hardAlpha" />
      <feOffset dx="-5" dy="10" />
      <feGaussianBlur stdDeviation="40" />
      <feComposite in2="hardAlpha" operator="out" />
      <feColorMatrix type="matrix" values="0 0 0 0 0.226667 0 0 0 0 0.00180013 0 0 0 0 0.430231 0 0 0 0.2 0" />
      <feBlend mode="normal" in2="BackgroundImageFix" result="effect1_dropShadow_15976_4375" />
      <feBlend mode="normal" in="SourceGraphic" in2="effect1_dropShadow_15976_4375" result="shape" />
    </filter>
    <filter id="filter1_d_15976_4375" x="-459.639" y="724.184" width="1060.09" height="846.365"
      filterUnits="userSpaceOnUse" color-interpolation-filters="sRGB">
      <feFlood flood-opacity="0" result="BackgroundImageFix" />
      <feColorMatrix in="SourceAlpha" type="matrix" values="0 0 0 0 0 0 0 0 0 0 0 0 0 0 0 0 0 0 127 0"
        result="hardAlpha" />
      <feOffset dx="-5" dy="10" />
      <feGaussianBlur stdDeviation="40" />
      <feComposite in2="hardAlpha" operator="out" />
      <feColorMatrix type="matrix" values="0 0 0 0 0.226667 0 0 0 0 0.00180013 0 0 0 0 0.430231 0 0 0 0.2 0" />
      <feBlend mode="normal" in2="BackgroundImageFix" result="effect1_dropShadow_15976_4375" />
      <feBlend mode="normal" in="SourceGraphic" in2="effect1_dropShadow_15976_4375" result="shape" />
    </filter>
    <linearGradient id="paint0_linear_15976_4375" x1="-471.073" y1="922.816" x2="804.394" y2="1009.71"
      gradientUnits="userSpaceOnUse">
      <stop stop-color="#DFCCF0" />
      <stop offset="1" stop-color="#9F66D3" />
    </linearGradient>
    <linearGradient id="paint1_linear_15976_4375" x1="2066.47" y1="179.248" x2="842.805" y2="190.706"
      gradientUnits="userSpaceOnUse">
      <stop stop-color="#DFCCF0" />
      <stop offset="1" stop-color="#9F66D3" />
    </linearGradient>
    <linearGradient id="paint2_linear_15976_4375" x1="2123.27" y1="-629.43" x2="1939.3" y2="1163.69"
      gradientUnits="userSpaceOnUse">
      <stop stop-color="#DFCCF0" />
      <stop offset="1" stop-color="#9F66D3" />
    </linearGradient>
    <linearGradient id="paint3_linear_15976_4375" x1="-471.073" y1="989.816" x2="804.394" y2="1076.71"
      gradientUnits="userSpaceOnUse">
      <stop stop-color="#DFCCF0" />
      <stop offset="1" stop-color="#9F66D3" />
    </linearGradient>
    <clipPath id="clip0_15976_4375">
      <rect width="1440" height="1024" fill="white" />
    </clipPath>
  </defs>
</svg>