<svg width="100%" height="100%" viewBox="0 0 1440 1024" preserveAspectRatio="none" fill="none"
  xmlns="http://www.w3.org/2000/svg">
  <g clip-path="url(#clip0_15926_1502)">
    <path opacity="0.15" fill-rule="evenodd" clip-rule="evenodd"
      d="M1764.16 -210.381C1838.51 -72.4003 1852.74 77.6354 1833.75 200.805C1813.9 329.546 1769.88 462.227 1661.61 454.755C1559.66 447.719 1472.88 272.782 1373.15 169.018C1267.72 59.3228 1105.6 -2.79874 1076.94 -153.562C1048.26 -304.366 1189.98 -317.747 1268.96 -378.942C1331.53 -427.42 1386.16 -493.48 1476.15 -462.849C1580.4 -427.363 1693.14 -342.179 1764.16 -210.381Z"
      fill="url(#paint0_linear_15926_1502)" />
    <mask id="mask0_15926_1502" style="mask-type:luminance" maskUnits="userSpaceOnUse" x="289" y="-274" width="1702"
      height="1387">
      <path d="M1733.12 -274L289 88.3804L545.972 1112.44L1990.09 750.056L1733.12 -274Z" fill="white" />
    </mask>
    <g mask="url(#mask0_15926_1502)">
      <path opacity="0.15"
        d="M978.075 97.2012C895.388 70.6447 655.905 3.53279 553.54 -28.9503C539.62 -33.3675 540.214 -51.32 554.246 -55.4134L1611.62 -363.884C1614.15 -364.623 1616.74 -364.727 1619.31 -364.142C1882.82 -304.156 2404.24 -169.609 2412.04 -104.124C2421.83 -21.8666 2342.56 113.043 2293.17 189.219C2243.78 265.396 2032.9 432.1 1818.61 521.971C1664.82 586.47 1381.33 485.002 1189.24 374.208C1039.5 287.844 1171.32 159.264 978.075 97.2012Z"
        fill="url(#paint1_linear_15926_1502)" />
      <g opacity="0.2" filter="url(#filter0_d_15926_1502)">
        <path fill-rule="evenodd" clip-rule="evenodd"
          d="M-132.93 919.314C-225.849 984.496 -375.171 1022.17 -374.638 1143.06C-374.106 1263.81 -229.578 1325.11 -130.849 1391.47C-60.7754 1438.57 16.527 1446.23 97.1261 1460.16C198.734 1477.71 308.149 1538.7 392.067 1481.82C483.978 1419.52 547.585 1290.56 518.22 1174.73C490.377 1064.9 350.741 1049.18 264.547 978.795C200.465 926.466 163.399 832.548 84.7823 820.783C1.34453 808.297 -64.8882 871.583 -132.93 919.314Z"
          fill="url(#paint2_linear_15926_1502)" />
      </g>
    </g>
  </g>
  <defs>
    <filter id="filter0_d_15926_1502" x="-459.639" y="749.184" width="1060.09" height="846.365"
      filterUnits="userSpaceOnUse" color-interpolation-filters="sRGB">
      <feFlood flood-opacity="0" result="BackgroundImageFix" />
      <feColorMatrix in="SourceAlpha" type="matrix" values="0 0 0 0 0 0 0 0 0 0 0 0 0 0 0 0 0 0 127 0"
        result="hardAlpha" />
      <feOffset dx="-5" dy="10" />
      <feGaussianBlur stdDeviation="40" />
      <feComposite in2="hardAlpha" operator="out" />
      <feColorMatrix type="matrix" values="0 0 0 0 0.226667 0 0 0 0 0.00180013 0 0 0 0 0.430231 0 0 0 0.2 0" />
      <feBlend mode="normal" in2="BackgroundImageFix" result="effect1_dropShadow_15926_1502" />
      <feBlend mode="normal" in="SourceGraphic" in2="effect1_dropShadow_15926_1502" result="shape" />
    </filter>
    <linearGradient id="paint0_linear_15926_1502" x1="2066.47" y1="179.248" x2="842.806" y2="190.706"
      gradientUnits="userSpaceOnUse">
      <stop stop-color="#DFCCF0" />
      <stop offset="1" stop-color="#9F66D3" />
    </linearGradient>
    <linearGradient id="paint1_linear_15926_1502" x1="2123.27" y1="-629.43" x2="1939.3" y2="1163.69"
      gradientUnits="userSpaceOnUse">
      <stop stop-color="#DFCCF0" />
      <stop offset="1" stop-color="#9F66D3" />
    </linearGradient>
    <linearGradient id="paint2_linear_15926_1502" x1="-471.073" y1="1014.82" x2="804.393" y2="1101.71"
      gradientUnits="userSpaceOnUse">
      <stop stop-color="#DFCCF0" />
      <stop offset="1" stop-color="#9F66D3" />
    </linearGradient>
    <clipPath id="clip0_15926_1502">
      <rect width="1440" height="1024" fill="white" />
    </clipPath>
  </defs>
</svg>