<svg width="100%" height="100%" viewBox="0 0 1440 1024" preserveAspectRatio="none" fill="none"
  xmlns="http://www.w3.org/2000/svg">
  <g clip-path="url(#clip0_15976_4639)">
    <path opacity="0.15" fill-rule="evenodd" clip-rule="evenodd"
      d="M1764.16 -210.381C1838.51 -72.4003 1852.74 77.6354 1833.75 200.805C1813.9 329.546 1769.88 462.227 1661.61 454.755C1559.66 447.719 1472.88 272.782 1373.15 169.018C1267.72 59.3228 1105.6 -2.79874 1076.94 -153.562C1048.26 -304.366 1189.97 -317.747 1268.96 -378.942C1331.53 -427.42 1386.16 -493.48 1476.15 -462.849C1580.4 -427.363 1693.14 -342.179 1764.16 -210.381Z"
      fill="url(#paint0_linear_15976_4639)" />
    <path opacity="0.15"
      d="M978.075 97.2012C895.388 70.6447 655.905 3.53279 553.54 -28.9503C539.62 -33.3675 540.214 -51.32 554.246 -55.4134L1611.62 -363.884C1614.15 -364.623 1616.74 -364.727 1619.31 -364.142C1882.82 -304.156 2404.24 -169.609 2412.04 -104.124C2421.83 -21.8666 2342.56 113.043 2293.17 189.219C2243.78 265.396 2032.9 432.1 1818.61 521.971C1664.82 586.47 1381.33 485.002 1189.24 374.208C1039.5 287.844 1171.32 159.264 978.075 97.2012Z"
      fill="url(#paint1_linear_15976_4639)" />
    <path opacity="0.15" fill-rule="evenodd" clip-rule="evenodd"
      d="M-73.5148 1234.33C-114.396 1173.81 -139.818 1110.25 -136.096 1040.91C-132.071 965.954 -118.657 886.664 -52.1242 835.926C17.5506 782.791 119.106 758.006 211.135 776.113C295.967 792.804 332.441 868.687 390.185 922.953C452.892 981.883 562.7 1023.52 557.996 1102.08C553.246 1181.39 439.77 1215.54 369.443 1269.31C290.233 1329.86 234.667 1439.64 127.512 1431.18C20.3265 1422.72 -20.8209 1312.35 -73.5148 1234.33Z"
      fill="url(#paint2_linear_15976_4639)" />
    <path opacity="0.05" fill-rule="evenodd" clip-rule="evenodd"
      d="M-73.5148 1291.33C-114.396 1230.81 -139.818 1167.25 -136.096 1097.91C-132.071 1022.95 -118.657 943.664 -52.1242 892.926C17.5506 839.791 119.106 815.006 211.135 833.113C295.967 849.804 332.441 925.687 390.185 979.953C452.892 1038.88 562.7 1080.52 557.996 1159.08C553.246 1238.39 439.77 1272.54 369.443 1326.31C290.233 1386.86 234.667 1496.64 127.512 1488.18C20.3265 1479.72 -20.8209 1369.35 -73.5148 1291.33Z"
      fill="url(#paint3_linear_15976_4639)" />
  </g>
  <defs>
    <linearGradient id="paint0_linear_15976_4639" x1="2066.47" y1="179.248" x2="842.805" y2="190.706"
      gradientUnits="userSpaceOnUse">
      <stop stop-color="#DFCCF0" />
      <stop offset="1" stop-color="#9F66D3" />
    </linearGradient>
    <linearGradient id="paint1_linear_15976_4639" x1="2123.27" y1="-629.43" x2="1939.3" y2="1163.69"
      gradientUnits="userSpaceOnUse">
      <stop stop-color="#DFCCF0" />
      <stop offset="1" stop-color="#9F66D3" />
    </linearGradient>
    <linearGradient id="paint2_linear_15976_4639" x1="-363.345" y1="1107.15" x2="770.424" y2="989.655"
      gradientUnits="userSpaceOnUse">
      <stop stop-color="#DFCCF0" />
      <stop offset="1" stop-color="#9F66D3" />
    </linearGradient>
    <linearGradient id="paint3_linear_15976_4639" x1="-363.345" y1="1164.15" x2="770.424" y2="1046.65"
      gradientUnits="userSpaceOnUse">
      <stop stop-color="#DFCCF0" />
      <stop offset="1" stop-color="#9F66D3" />
    </linearGradient>
    <clipPath id="clip0_15976_4639">
      <rect width="1440" height="1024" fill="white" />
    </clipPath>
  </defs>
</svg>