<svg width="100%" height="100%" viewBox="0 0 1440 1024" preserveAspectRatio="none" fill="none"
  xmlns="http://www.w3.org/2000/svg">
  <g clip-path="url(#clip0_15964_3325)">
    <path opacity="0.15" fill-rule="evenodd" clip-rule="evenodd"
      d="M310.014 1267.01C241.948 1309.89 177.517 1364.13 97.1942 1359.74C9.32394 1354.94 -83.7889 1318.92 -128.362 1243.04C-170.894 1170.64 -137.942 1081.49 -113.439 1001.17C-93.1888 934.792 -53.0077 882.406 -3.50381 833.77C59.273 772.094 119.48 666.969 204.811 688.499C291.056 710.259 270.55 844.577 323.269 916.218C376.945 989.159 511.664 1010.34 508.245 1100.84C504.861 1190.41 385.858 1219.24 310.014 1267.01Z"
      fill="url(#paint0_linear_15964_3325)" />
    <path opacity="0.1" fill-rule="evenodd" clip-rule="evenodd"
      d="M1689.63 318.423C1652.38 401.501 1646.24 524.927 1537.61 529.375C1429.07 533.819 1347.55 414.96 1262.61 335.907C1192.13 270.316 1111.74 205.107 1102.5 124.438C1092.77 39.5762 1143.25 -29.0576 1215.96 -71.1551C1290.32 -114.211 1387.44 -129.397 1486.91 -98.1328C1590.52 -65.5691 1690.48 2.43534 1733.89 91.6334C1774.72 175.537 1722.18 245.823 1689.63 318.423Z"
      fill="url(#paint1_linear_15964_3325)" />
    <path opacity="0.2"
      d="M1014.41 227.51C963.169 148.684 773.461 49.6974 685.011 10.0576C645.361 -8.50177 685.011 -61.2941 703.311 -146.237C721.611 -231.179 1243.16 -547.165 1288.91 -533.575C1325.04 -522.84 1629.77 -204.287 1783.28 -40.3402C1787.09 -36.2667 1789.1 -31.0461 1789.13 -25.4657C1789.57 54.79 1796.09 226.985 1819.6 339.635C1850.1 485.736 1822.65 509.52 1755.55 594.462C1688.46 679.405 1596.96 686.2 1551.21 689.598C1505.46 692.996 1395.66 676.007 1258.41 594.462C1121.16 512.917 1078.46 326.044 1014.41 227.51Z"
      fill="url(#paint2_linear_15964_3325)" />
  </g>
  <defs>
    <linearGradient id="paint0_linear_15964_3325" x1="136.598" y1="1522.89" x2="113.477" y2="510.332"
      gradientUnits="userSpaceOnUse">
      <stop stop-color="#DFCCF0" />
      <stop offset="1" stop-color="#9F66D3" />
    </linearGradient>
    <linearGradient id="paint1_linear_15964_3325" x1="1680.94" y1="580.953" x2="1316.28" y2="-408.099"
      gradientUnits="userSpaceOnUse">
      <stop stop-color="#DFCCF0" />
      <stop offset="1" stop-color="#9F66D3" />
    </linearGradient>
    <linearGradient id="paint2_linear_15964_3325" x1="1735" y1="-712.5" x2="493.332" y2="911.103"
      gradientUnits="userSpaceOnUse">
      <stop stop-color="#DFCCF0" />
      <stop offset="1" stop-color="#9F66D3" />
    </linearGradient>
    <clipPath id="clip0_15964_3325">
      <rect width="1440" height="1024" fill="white" />
    </clipPath>
  </defs>
</svg>