<svg width="100%" height="100%" viewBox="0 0 1440 1024" preserveAspectRatio="none" fill="none"
  xmlns="http://www.w3.org/2000/svg">
<path fill-rule="evenodd" clip-rule="evenodd" d="M162.374 103.59C102.411 -131.238 -153.095 -423.319 134.971 -576.169C422.675 -728.827 901.943 -570.439 1287.42 -493.37C1561.02 -438.669 1757.73 -321.996 1976.93 -207.902C2253.26 -64.0675 2650.68 37.3039 2709.55 246.858C2774.03 476.371 2614.97 744.359 2272.32 843.624C1947.43 937.747 1587.62 729.39 1221.54 677.938C949.378 639.686 640.938 698.492 431.444 584.892C209.105 464.325 206.282 275.547 162.374 103.59Z" fill="white"/>
<path fill-rule="evenodd" clip-rule="evenodd" d="M162.374 103.59C102.411 -131.238 -153.095 -423.319 134.971 -576.169C422.675 -728.827 901.943 -570.439 1287.42 -493.37C1561.02 -438.669 1757.73 -321.996 1976.93 -207.902C2253.26 -64.0675 2650.68 37.3039 2709.55 246.858C2774.03 476.371 2614.97 744.359 2272.32 843.624C1947.43 937.747 1587.62 729.39 1221.54 677.938C949.378 639.686 640.938 698.492 431.444 584.892C209.105 464.325 206.282 275.547 162.374 103.59Z" fill="url(#paint0_linear_6094_2646)" fill-opacity="0.25"/>
<defs>
<linearGradient id="paint0_linear_6094_2646" x1="383.763" y1="703.895" x2="1633.76" y2="-50.1053" gradientUnits="userSpaceOnUse">
<stop stop-color="#DFCCF0"/>
<stop offset="1" stop-color="#9F66D3"/>
</linearGradient>
</defs>
</svg>