<svg xmlns="http://www.w3.org/2000/svg" width="27" height="33" viewBox="0 0 27 33">
    <g fill="none" fill-rule="evenodd" opacity=".448">
        <g>
            <g>
                <path fill="#000" d="M21 12v21H0V12h21zm-3 3H3v15h15V15z" transform="translate(-683 -1634) translate(683 1634)"/>
                <g fill="#FFF">
                    <path d="M3.011 0H12.045000000000002V24.33H3.011z" transform="translate(-683 -1634) translate(683 1634) rotate(40 4.696 24.182)"/>
                    <path d="M0 21.289H9.034V24.330000000000002H0z" transform="translate(-683 -1634) translate(683 1634) rotate(40 4.696 24.182)"/>
                </g>
                <g fill="#000">
                    <path d="M6.023 0H9.033999999999999V27.372H6.023z" transform="translate(-683 -1634) translate(683 1634) rotate(40 8.885 25.685)"/>
                    <path d="M0 24.33H9.034V27.371H0z" transform="translate(-683 -1634) translate(683 1634) rotate(40 8.885 25.685)"/>
                </g>
            </g>
        </g>
    </g>
</svg>
