<svg width="123" height="48" viewBox="0 0 123 48" fill="none" xmlns="http://www.w3.org/2000/svg">
<path d="M43.1744 12.1383C44.3636 12.1383 45.5041 12.6107 46.3451 13.4516C47.186 14.2925 47.6584 15.4331 47.6584 16.6223V30.0742C47.6584 39.9817 39.6299 41.1775 29.7224 41.1775C19.815 41.1775 11.7865 39.9817 11.7865 30.0742V16.6223C11.7865 15.4331 12.2589 14.2925 13.0998 13.4516C13.9407 12.6107 15.0813 12.1383 16.2705 12.1383" fill="#BB93E1"/>
<path d="M43.1744 12.1281H41.2954C40.5866 12.1276 39.8878 12.2954 39.2565 12.6176C38.6251 12.9398 38.0793 13.4072 37.6638 13.9814L26.0003 30.0811C24.6098 32.0011 21.9297 32.5562 19.9584 31.2358C19.4813 30.9159 19.0719 30.5051 18.7535 30.027C18.4352 29.5488 18.2142 29.0126 18.1032 28.449C17.9921 27.8853 17.9932 27.3054 18.1064 26.7422C18.2196 26.179 18.4426 25.6436 18.7627 25.1666C18.7918 25.1222 18.8225 25.0795 18.8533 25.0368L28.2039 12.1281H16.2739C15.6855 12.1281 15.1029 12.2439 14.5593 12.4691C14.0156 12.6943 13.5217 13.0243 13.1056 13.4404C12.6896 13.8564 12.3596 14.3504 12.1344 14.894C11.9092 15.4376 11.7933 16.0202 11.7933 16.6086V29.8248C11.7933 39.7084 19.7056 47.8992 29.5943 47.9726C34.3489 48.0085 38.9232 46.1551 42.3118 42.8197C45.7004 39.4843 47.626 34.9398 47.6652 30.1853V16.6086C47.665 16.02 47.5488 15.4372 47.3234 14.8934C47.0979 14.3497 46.7676 13.8557 46.3512 13.4397C45.9348 13.0236 45.4406 12.6936 44.8967 12.4686C44.3528 12.2435 43.7699 12.1278 43.1812 12.1281H43.1744Z" fill="#5F00B5"/>
<path d="M4.21921 33.6513C3.10186 33.6526 2.0297 33.2102 1.2385 32.4212C0.447289 31.6322 0.00181085 30.5613 0 29.444V4.20556C0.000896561 3.65238 0.110746 3.10479 0.323267 2.59406C0.535787 2.08333 0.84681 1.61947 1.2386 1.22895C1.63039 0.83843 2.09528 0.528901 2.60669 0.318038C3.11811 0.107175 3.66603 -0.000892465 4.21921 5.55102e-06H16.8786C26.2002 5.55102e-06 33.7572 7.52627 33.7572 16.8239C33.7572 26.1216 26.2002 33.6513 16.8786 33.6513H4.21921Z" fill="#BB93E1"/>
<mask id="mask0_5707_4762" style="mask-type:alpha" maskUnits="userSpaceOnUse" x="12" y="12" width="36" height="36">
<path d="M12.1281 19.3024C12.1281 15.3401 15.3401 12.1281 19.3024 12.1281H40.4839C44.4462 12.1281 47.6583 15.3401 47.6583 19.3024V30.2348C47.6583 40.0462 39.7046 47.9999 29.8932 47.9999C20.0818 47.9999 12.1281 40.0462 12.1281 30.2348V19.3024Z" fill="#524175"/>
</mask>
<g mask="url(#mask0_5707_4762)">
<g filter="url(#filter0_d_5707_4762)">
<path d="M4.5421 33.6512C3.42807 33.6512 2.35969 33.2087 1.57196 32.421C0.784223 31.6332 0.341675 30.5648 0.341675 29.4508V4.20042C0.341675 3.0864 0.784223 2.01801 1.57196 1.23028C2.35969 0.442548 3.42807 0 4.5421 0H17.1673C21.5882 0.0629969 25.8067 1.86341 28.9107 5.01198C32.0147 8.16054 33.7549 12.4043 33.7549 16.8256C33.7549 21.247 32.0147 25.4907 28.9107 28.6393C25.8067 31.7878 21.5882 33.5882 17.1673 33.6512H4.5421Z" fill="#7F39FB"/>
</g>
</g>
<path d="M70.9102 19.8525H66.9802L66.3502 21.7125H63.6652L67.4752 11.1825H70.4452L74.2552 21.7125H71.5402L70.9102 19.8525ZM70.2502 17.8725L68.9452 14.0175L67.6552 17.8725H70.2502Z" fill="#21143B"/>
<path d="M79.6597 11.1825C80.7697 11.1825 81.7397 11.4025 82.5697 11.8425C83.3997 12.2825 84.0397 12.9025 84.4897 13.7025C84.9497 14.4925 85.1797 15.4075 85.1797 16.4475C85.1797 17.4775 84.9497 18.3925 84.4897 19.1925C84.0397 19.9925 83.3947 20.6125 82.5547 21.0525C81.7247 21.4925 80.7597 21.7125 79.6597 21.7125H75.7147V11.1825H79.6597ZM79.4947 19.4925C80.4647 19.4925 81.2197 19.2275 81.7597 18.6975C82.2997 18.1675 82.5697 17.4175 82.5697 16.4475C82.5697 15.4775 82.2997 14.7225 81.7597 14.1825C81.2197 13.6425 80.4647 13.3725 79.4947 13.3725H78.2797V19.4925H79.4947Z" fill="#21143B"/>
<path d="M98.8382 11.1825V21.7125H96.2732V15.3975L93.9182 21.7125H91.8482L89.4782 15.3825V21.7125H86.9132V11.1825H89.9432L92.8982 18.4725L95.8232 11.1825H98.8382Z" fill="#21143B"/>
<path d="M103.548 11.1825V21.7125H100.983V11.1825H103.548Z" fill="#21143B"/>
<path d="M115.127 21.7125H112.562L108.272 15.2175V21.7125H105.707V11.1825H108.272L112.562 17.7075V11.1825H115.127V21.7125Z" fill="#21143B"/>
<path d="M72.3802 29.5725C72.3802 30.1825 72.2402 30.7425 71.9602 31.2525C71.6802 31.7525 71.2502 32.1575 70.6702 32.4675C70.0902 32.7775 69.3702 32.9325 68.5102 32.9325H66.9202V36.7125H64.3552V26.1825H68.5102C69.3502 26.1825 70.0602 26.3275 70.6402 26.6175C71.2202 26.9075 71.6552 27.3075 71.9452 27.8175C72.2352 28.3275 72.3802 28.9125 72.3802 29.5725ZM68.3152 30.8925C68.8052 30.8925 69.1702 30.7775 69.4102 30.5475C69.6502 30.3175 69.7702 29.9925 69.7702 29.5725C69.7702 29.1525 69.6502 28.8275 69.4102 28.5975C69.1702 28.3675 68.8052 28.2525 68.3152 28.2525H66.9202V30.8925H68.3152Z" fill="#21143B"/>
<path d="M78.9955 36.8175C78.0055 36.8175 77.0955 36.5875 76.2655 36.1275C75.4455 35.6675 74.7905 35.0275 74.3005 34.2075C73.8205 33.3775 73.5805 32.4475 73.5805 31.4175C73.5805 30.3875 73.8205 29.4625 74.3005 28.6425C74.7905 27.8225 75.4455 27.1825 76.2655 26.7225C77.0955 26.2625 78.0055 26.0325 78.9955 26.0325C79.9855 26.0325 80.8905 26.2625 81.7105 26.7225C82.5405 27.1825 83.1905 27.8225 83.6605 28.6425C84.1405 29.4625 84.3805 30.3875 84.3805 31.4175C84.3805 32.4475 84.1405 33.3775 83.6605 34.2075C83.1805 35.0275 82.5305 35.6675 81.7105 36.1275C80.8905 36.5875 79.9855 36.8175 78.9955 36.8175ZM78.9955 34.4775C79.8355 34.4775 80.5055 34.1975 81.0055 33.6375C81.5155 33.0775 81.7705 32.3375 81.7705 31.4175C81.7705 30.4875 81.5155 29.7475 81.0055 29.1975C80.5055 28.6375 79.8355 28.3575 78.9955 28.3575C78.1455 28.3575 77.4655 28.6325 76.9555 29.1825C76.4555 29.7325 76.2055 30.4775 76.2055 31.4175C76.2055 32.3475 76.4555 33.0925 76.9555 33.6525C77.4655 34.2025 78.1455 34.4775 78.9955 34.4775Z" fill="#21143B"/>
<path d="M91.4775 36.7125L89.2875 32.7375H88.6725V36.7125H86.1075V26.1825H90.4125C91.2425 26.1825 91.9475 26.3275 92.5275 26.6175C93.1175 26.9075 93.5575 27.3075 93.8475 27.8175C94.1375 28.3175 94.2825 28.8775 94.2825 29.4975C94.2825 30.1975 94.0825 30.8225 93.6825 31.3725C93.2925 31.9225 92.7125 32.3125 91.9425 32.5425L94.3725 36.7125H91.4775ZM88.6725 30.9225H90.2625C90.7325 30.9225 91.0825 30.8075 91.3125 30.5775C91.5525 30.3475 91.6725 30.0225 91.6725 29.6025C91.6725 29.2025 91.5525 28.8875 91.3125 28.6575C91.0825 28.4275 90.7325 28.3125 90.2625 28.3125H88.6725V30.9225Z" fill="#21143B"/>
<path d="M103.768 26.1825V28.2375H100.978V36.7125H98.4127V28.2375H95.6227V26.1825H103.768Z" fill="#21143B"/>
<path d="M111.91 34.8525H107.98L107.35 36.7125H104.665L108.475 26.1825H111.445L115.255 36.7125H112.54L111.91 34.8525ZM111.25 32.8725L109.945 29.0175L108.655 32.8725H111.25Z" fill="#21143B"/>
<path d="M119.28 34.7325H122.64V36.7125H116.715V26.1825H119.28V34.7325Z" fill="#21143B"/>
<defs>
<filter id="filter0_d_5707_4762" x="-23.6583" y="-24" width="81.4132" height="81.6512" filterUnits="userSpaceOnUse" color-interpolation-filters="sRGB">
<feFlood flood-opacity="0" result="BackgroundImageFix"/>
<feColorMatrix in="SourceAlpha" type="matrix" values="0 0 0 0 0 0 0 0 0 0 0 0 0 0 0 0 0 0 127 0" result="hardAlpha"/>
<feOffset/>
<feGaussianBlur stdDeviation="12"/>
<feComposite in2="hardAlpha" operator="out"/>
<feColorMatrix type="matrix" values="0 0 0 0 0 0 0 0 0 0 0 0 0 0 0 0 0 0 0.5 0"/>
<feBlend mode="normal" in2="BackgroundImageFix" result="effect1_dropShadow_5707_4762"/>
<feBlend mode="normal" in="SourceGraphic" in2="effect1_dropShadow_5707_4762" result="shape"/>
</filter>
</defs>
</svg>
