<svg xmlns="http://www.w3.org/2000/svg" width="82" height="26" viewBox="0 0 82 26" fill="none">
<path d="M4.38922 1.09299C5.42522 1.09299 6.33056 1.29832 7.10522 1.70899C7.87989 2.11965 8.47722 2.69832 8.89722 3.44499C9.32656 4.18232 9.54122 5.03632 9.54122 6.00699C9.54122 6.96832 9.32656 7.82232 8.89722 8.56899C8.47722 9.31565 7.87522 9.89432 7.09122 10.305C6.31656 10.7157 5.41589 10.921 4.38922 10.921H0.707222V1.09299H4.38922ZM4.23522 8.84899C5.14056 8.84899 5.84522 8.60165 6.34922 8.10699C6.85322 7.61232 7.10522 6.91232 7.10522 6.00699C7.10522 5.10165 6.85322 4.39699 6.34922 3.89299C5.84522 3.38899 5.14056 3.13699 4.23522 3.13699H3.10122V8.84899H4.23522Z" fill="#21143B"/>
<path d="M13.2731 1.09299V10.921H10.8791V1.09299H13.2731Z" fill="#21143B"/>
<path d="M21.532 4.20099C21.3547 3.87432 21.098 3.62699 20.762 3.45899C20.4353 3.28165 20.048 3.19299 19.6 3.19299C18.8253 3.19299 18.2047 3.44965 17.738 3.96299C17.2713 4.46699 17.038 5.14365 17.038 5.99299C17.038 6.89832 17.2807 7.60765 17.766 8.12099C18.2607 8.62499 18.9373 8.87699 19.796 8.87699C20.384 8.87699 20.8787 8.72765 21.28 8.42899C21.6907 8.13032 21.9893 7.70099 22.176 7.14099H19.138V5.37699H24.346V7.60299C24.1687 8.20032 23.8653 8.75565 23.436 9.26899C23.016 9.78232 22.4793 10.1977 21.826 10.515C21.1727 10.8323 20.4353 10.991 19.614 10.991C18.6433 10.991 17.7753 10.781 17.01 10.361C16.254 9.93165 15.6613 9.33899 15.232 8.58299C14.812 7.82699 14.602 6.96365 14.602 5.99299C14.602 5.02232 14.812 4.15899 15.232 3.40299C15.6613 2.63765 16.254 2.04499 17.01 1.62499C17.766 1.19565 18.6293 0.980988 19.6 0.980988C20.776 0.980988 21.7653 1.26565 22.568 1.83499C23.38 2.40432 23.9167 3.19299 24.178 4.20099H21.532Z" fill="#21143B"/>
<path d="M28.0661 1.09299V10.921H25.6721V1.09299H28.0661Z" fill="#21143B"/>
<path d="M36.871 1.09299V3.01099H34.267V10.921H31.873V3.01099H29.269V1.09299H36.871Z" fill="#21143B"/>
<path d="M44.1905 9.18499H40.5225L39.9345 10.921H37.4285L40.9845 1.09299H43.7565L47.3125 10.921H44.7785L44.1905 9.18499ZM43.5745 7.33699L42.3565 3.73899L41.1525 7.33699H43.5745Z" fill="#21143B"/>
<path d="M50.7887 9.07299H53.9247V10.921H48.3947V1.09299H50.7887V9.07299Z" fill="#21143B"/>
<path d="M3.05922 15.093V20.973C3.05922 21.561 3.20389 22.0137 3.49322 22.331C3.78256 22.6483 4.20722 22.807 4.76722 22.807C5.32722 22.807 5.75656 22.6483 6.05522 22.331C6.35389 22.0137 6.50322 21.561 6.50322 20.973V15.093H8.89722V20.959C8.89722 21.8363 8.71056 22.5783 8.33722 23.185C7.96389 23.7917 7.45989 24.249 6.82522 24.557C6.19989 24.865 5.49989 25.019 4.72522 25.019C3.95056 25.019 3.25522 24.8697 2.63922 24.571C2.03256 24.263 1.55189 23.8057 1.19722 23.199C0.842556 22.583 0.665222 21.8363 0.665222 20.959V15.093H3.05922Z" fill="#21143B"/>
<path d="M19.3703 24.921H16.9763L12.9723 18.859V24.921H10.5783V15.093H12.9723L16.9763 21.183V15.093H19.3703V24.921Z" fill="#21143B"/>
<path d="M23.4997 15.093V24.921H21.1057V15.093H23.4997Z" fill="#21143B"/>
<path d="M34.4606 15.093L30.9746 24.921H27.9786L24.4926 15.093H27.0406L29.4766 22.513L31.9266 15.093H34.4606Z" fill="#21143B"/>
<path d="M37.8551 17.011V18.999H41.0611V20.847H37.8551V23.003H41.4811V24.921H35.4611V15.093H41.4811V17.011H37.8551Z" fill="#21143B"/>
<path d="M48.0473 24.921L46.0033 21.211H45.4293V24.921H43.0353V15.093H47.0533C47.828 15.093 48.486 15.2283 49.0273 15.499C49.578 15.7697 49.9887 16.143 50.2593 16.619C50.53 17.0857 50.6653 17.6083 50.6653 18.187C50.6653 18.8403 50.4787 19.4237 50.1053 19.937C49.7413 20.4503 49.2 20.8143 48.4813 21.029L50.7493 24.921H48.0473ZM45.4293 19.517H46.9133C47.352 19.517 47.6787 19.4097 47.8933 19.195C48.1173 18.9803 48.2293 18.677 48.2293 18.285C48.2293 17.9117 48.1173 17.6177 47.8933 17.403C47.6787 17.1883 47.352 17.081 46.9133 17.081H45.4293V19.517Z" fill="#21143B"/>
<path d="M55.7242 25.019C55.0055 25.019 54.3615 24.9023 53.7922 24.669C53.2228 24.4357 52.7655 24.0903 52.4202 23.633C52.0842 23.1757 51.9068 22.625 51.8882 21.981H54.4362C54.4735 22.345 54.5995 22.625 54.8142 22.821C55.0288 23.0077 55.3088 23.101 55.6542 23.101C56.0088 23.101 56.2888 23.0217 56.4942 22.863C56.6995 22.695 56.8022 22.4663 56.8022 22.177C56.8022 21.9343 56.7182 21.7337 56.5502 21.575C56.3915 21.4163 56.1908 21.2857 55.9482 21.183C55.7148 21.0803 55.3788 20.9637 54.9402 20.833C54.3055 20.637 53.7875 20.441 53.3862 20.245C52.9848 20.049 52.6395 19.7597 52.3502 19.377C52.0608 18.9943 51.9162 18.495 51.9162 17.879C51.9162 16.9643 52.2475 16.2503 52.9102 15.737C53.5728 15.2143 54.4362 14.953 55.5002 14.953C56.5828 14.953 57.4555 15.2143 58.1182 15.737C58.7808 16.2503 59.1355 16.969 59.1822 17.893H56.5922C56.5735 17.5757 56.4568 17.3283 56.2422 17.151C56.0275 16.9643 55.7522 16.871 55.4162 16.871C55.1268 16.871 54.8935 16.9503 54.7162 17.109C54.5388 17.2583 54.4502 17.4777 54.4502 17.767C54.4502 18.0843 54.5995 18.3317 54.8982 18.509C55.1968 18.6863 55.6635 18.8777 56.2982 19.083C56.9328 19.2977 57.4462 19.503 57.8382 19.699C58.2395 19.895 58.5848 20.1797 58.8742 20.553C59.1635 20.9263 59.3082 21.407 59.3082 21.995C59.3082 22.555 59.1635 23.0637 58.8742 23.521C58.5942 23.9783 58.1835 24.3423 57.6422 24.613C57.1008 24.8837 56.4615 25.019 55.7242 25.019Z" fill="#21143B"/>
<path d="M63.1754 15.093V24.921H60.7814V15.093H63.1754Z" fill="#21143B"/>
<path d="M71.9803 15.093V17.011H69.3764V24.921H66.9823V17.011H64.3783V15.093H71.9803Z" fill="#21143B"/>
<path d="M81.6098 15.093L78.2078 21.673V24.921H75.8138V21.673L72.4118 15.093H75.1278L77.0318 19.209L78.9218 15.093H81.6098Z" fill="#21143B"/>
</svg>