<svg xmlns="http://www.w3.org/2000/svg" width="1366" height="599" viewBox="0 0 1366 599">
    <g fill="none" fill-rule="evenodd" stroke-linecap="square" opacity=".073">
        <g stroke="#000">
            <g>
                <path d="M29.5.504L29.5 597.496M57.5.504L57.5 597.496M86.5.504L86.5 597.496M114.5.504L114.5 597.496M143.5.504L143.5 597.496M171.5.504L171.5 597.496M200.5.504L200.5 597.496M228.5.504L228.5 597.496M257.5.504L257.5 597.496M285.5.504L285.5 597.496M314.5.504L314.5 597.496M342.5.504L342.5 597.496M371.5.504L371.5 597.496M399.5.504L399.5 597.496M428.5.504L428.5 597.496M456.5.504L456.5 597.496M485.5.504L485.5 597.496M513.5.504L513.5 597.496M542.5.504L542.5 597.496M570.5.504L570.5 597.496M599.5.504L599.5 597.496M627.5.504L627.5 597.496M656.5.504L656.5 597.496M684.5.504L684.5 597.496M712.5.504L712.5 597.496M741.5.504L741.5 597.496M769.5.504L769.5 597.496M798.5.504L798.5 597.496M826.5.504L826.5 597.496M855.5.504L855.5 597.496M883.5.504L883.5 597.496M912.5.504L912.5 597.496M940.5.504L940.5 597.496M969.5.504L969.5 597.496M997.5.504L997.5 597.496M1026.5.504L1026.5 597.496M1054.5.504L1054.5 597.496M1083.5.504L1083.5 597.496M1111.5.504L1111.5 597.496M1168.5.504L1168.5 597.496M1196.5.504L1196.5 597.496M1225.5.504L1225.5 597.496M1253.5.504L1253.5 597.496M1282.5.504L1282.5 597.496M1310.5.504L1310.5 597.496M1339.5.504L1339.5 597.496M1139.5.504L1139.5 597.496" transform="translate(1 -59) translate(-1 59)"/>
                <path d="M683.5 -653.847L683.5 710.847" transform="translate(1 -59) translate(-1 59) rotate(90 683.5 28.5)"/>
                <path d="M683.5 -625.847L683.5 738.847" transform="translate(1 -59) translate(-1 59) rotate(90 683.5 56.5)"/>
                <path d="M683.5 -653.847L683.5 710.847" transform="translate(1 -59) translate(-1 59) rotate(90 683.5 28.5)"/>
                <path d="M683.5 -596.847L683.5 767.847" transform="translate(1 -59) translate(-1 59) rotate(90 683.5 85.5)"/>
                <path d="M683.5 -568.847L683.5 795.847" transform="translate(1 -59) translate(-1 59) rotate(90 683.5 113.5)"/>
                <path d="M683.5 -539.847L683.5 824.847" transform="translate(1 -59) translate(-1 59) rotate(90 683.5 142.5)"/>
                <path d="M683.5 -511.847L683.5 852.847" transform="translate(1 -59) translate(-1 59) rotate(90 683.5 170.5)"/>
                <path d="M683.5 -482.847L683.5 881.847" transform="translate(1 -59) translate(-1 59) rotate(90 683.5 199.5)"/>
                <path d="M683.5 -454.847L683.5 909.847" transform="translate(1 -59) translate(-1 59) rotate(90 683.5 227.5)"/>
                <path d="M683.5 -425.847L683.5 938.847" transform="translate(1 -59) translate(-1 59) rotate(90 683.5 256.5)"/>
                <path d="M683.5 -397.847L683.5 966.847" transform="translate(1 -59) translate(-1 59) rotate(90 683.5 284.5)"/>
                <path d="M683.5 -368.847L683.5 995.847" transform="translate(1 -59) translate(-1 59) rotate(90 683.5 313.5)"/>
                <path d="M683.5 -340.847L683.5 1023.847" transform="translate(1 -59) translate(-1 59) rotate(90 683.5 341.5)"/>
                <path d="M683.5 -226.847L683.5 1137.847" transform="translate(1 -59) translate(-1 59) rotate(90 683.5 455.5)"/>
                <path d="M683.5 -311.847L683.5 1052.847" transform="translate(1 -59) translate(-1 59) rotate(90 683.5 370.5)"/>
                <path d="M683.5 -283.847L683.5 1080.847" transform="translate(1 -59) translate(-1 59) rotate(90 683.5 398.5)"/>
                <path d="M683.5 -254.847L683.5 1109.847" transform="translate(1 -59) translate(-1 59) rotate(90 683.5 427.5)"/>
                <path d="M683.5 -140.847L683.5 1223.847" transform="translate(1 -59) translate(-1 59) rotate(90 683.5 541.5)"/>
                <path d="M683.5 -197.847L683.5 1166.847" transform="translate(1 -59) translate(-1 59) rotate(90 683.5 484.5)"/>
                <path d="M683.5 -169.847L683.5 1194.847" transform="translate(1 -59) translate(-1 59) rotate(90 683.5 512.5)"/>
                <path d="M683.5-112.847L683.5 1251.847M683.5-112.847L683.5 1251.847" transform="translate(1 -59) translate(-1 59) rotate(90 683.5 569.5)"/>
                <path d="M683.5 -83.847L683.5 1280.847" transform="translate(1 -59) translate(-1 59) rotate(90 683.5 598.5)"/>
            </g>
        </g>
    </g>
</svg>
