<svg xmlns="http://www.w3.org/2000/svg" width="13" height="13" viewBox="0 0 13 13">
  <path id="linkedin" d="M12.071,32H.926A.933.933,0,0,0,0,32.937V44.063A.933.933,0,0,0,.926,45H12.071A.935.935,0,0,0,13,44.063V32.937A.935.935,0,0,0,12.071,32ZM3.929,43.143H2v-6.2h1.93v6.2Zm-.963-7.051a1.117,1.117,0,1,1,1.117-1.117A1.118,1.118,0,0,1,2.966,36.092Zm8.186,7.051H9.225V40.125c0-.72-.015-1.645-1-1.645-1,0-1.158.783-1.158,1.593v3.07H5.139v-6.2H6.987v.847h.026a2.029,2.029,0,0,1,1.825-1c1.95,0,2.313,1.285,2.313,2.957Z" transform="translate(0 -32)" fill="#42d4ff"/>
</svg>
