<svg xmlns="http://www.w3.org/2000/svg" width="24" height="24" viewBox="0 0 24 24" fill="none">
  <path d="M0 24H21.8646L24 21.8516V0H0V24ZM19.5653 21.3929C18.278 20.5994 17.0963 19.6606 16.0031 18.6058C14.991 17.6284 13.4267 16.0742 12.1131 14.7735C12.4429 14.4484 12.7501 14.1426 13.0234 13.8735C14.1976 15.0697 15.7845 16.6277 16.8418 17.8258C17.6485 18.7394 18.8792 20.369 19.6048 21.3561C19.618 21.3735 19.6218 21.3968 19.6312 21.4161C19.6086 21.4084 19.5841 21.4065 19.5653 21.3929ZM21.0994 3.33097C21.2031 3.38129 21.3124 3.5129 21.3972 3.49548C21.6912 3.43742 21.9758 3.3271 22.2642 3.24C22.3 3.22839 22.3358 3.22645 22.3735 3.22064C22.3678 3.25742 22.3622 3.29226 22.3546 3.32903C22.2868 3.66581 22.0437 3.99484 22.1191 4.34323C22.1567 4.40129 22.2095 4.46323 22.2378 4.52516C22.2736 4.60452 22.2906 4.69161 22.3169 4.77484C22.2359 4.76129 22.153 4.73032 22.0738 4.73613C21.9984 4.74194 21.8985 4.74194 21.8307 4.7671L20.8563 3.76645C20.8883 3.69677 20.8883 3.58452 20.8921 3.49935C20.8978 3.41806 20.8676 3.3329 20.8544 3.24968C20.9354 3.27677 21.0221 3.29419 21.0975 3.33097H21.0994ZM13.1893 8.73097C13.259 8.65161 13.2722 8.49677 13.4625 8.66516C13.8093 8.97097 14.1429 9.29032 14.4859 9.60194C14.5048 9.61935 14.5463 9.61161 14.5764 9.60968C14.6518 9.60774 14.7253 9.60387 14.7988 9.59806C14.8233 9.59613 14.861 9.59613 14.8742 9.57871L17.3941 6.7471C17.8483 6.28839 18.3213 5.84903 18.8208 5.43677C19.4428 4.92387 20.0798 4.42645 20.7017 3.91355L21.6648 4.90258C21.482 5.07097 21.3067 5.24903 21.1522 5.44258H21.1541C20.7131 6.00194 20.3248 6.60581 19.8649 7.14581C18.7153 8.4929 17.4035 9.66387 16.0258 10.7594C16.0088 10.7729 16.005 10.8077 16.0031 10.8329C15.9975 10.9084 15.9937 10.9858 15.9918 11.0613C15.9918 11.0923 15.9843 11.1348 15.9994 11.1542C16.3028 11.5045 16.6157 11.849 16.9116 12.2052C17.0755 12.4006 16.9248 12.4123 16.8475 12.4858C16.7646 12.5632 16.6703 12.4684 16.6477 12.4413C16.2727 12.0174 15.8995 11.5877 15.5244 11.1639C15.5188 11.1581 15.5093 11.1542 15.498 11.1523L14.4106 10.0355C14.4106 10.0355 14.4011 10.02 14.3955 10.0142C14.0091 9.65419 13.619 9.29613 13.2326 8.93613C13.2062 8.9129 13.1139 8.81613 13.1893 8.73097ZM14.2259 10.3065L15.2417 11.3497C14.5029 12.091 13.7698 12.84 13.0234 13.5735C12.9556 13.6413 12.882 13.7129 12.8085 13.7845C12.7727 13.8213 12.735 13.8581 12.6973 13.8948C12.6389 13.9529 12.5786 14.0129 12.5164 14.0748C12.4919 14.1 12.4674 14.1232 12.4429 14.1465C12.3524 14.2355 12.2601 14.3284 12.1659 14.4213C12.1395 14.4465 12.115 14.4716 12.0886 14.4987C10.7052 15.869 8.90529 17.6594 7.78577 18.7413C6.69263 19.7961 5.51092 20.7348 4.22365 21.5303V21.5265C4.20481 21.5381 4.1803 21.5419 4.15769 21.5497C4.16523 21.5284 4.17088 21.5052 4.18407 21.4897C4.91158 20.5006 6.14041 18.8729 6.94707 17.9594C8.07602 16.6819 9.80996 14.9903 10.9992 13.769C10.9992 13.769 10.9973 13.7671 10.9954 13.7652L12.7746 11.9381L14.2259 10.3065ZM11.8059 12.6194C11.5307 12.9019 11.2574 13.1826 10.9823 13.4652L10.8899 13.56C10.8484 13.5174 10.8051 13.4768 10.7655 13.4381C10.0192 12.7045 9.28601 11.9555 8.54531 11.2142L9.56117 10.171L11.0124 11.8026C11.2763 12.0755 11.542 12.3465 11.8059 12.6194ZM4.96435 5.30516C5.4638 5.71742 5.93686 6.15677 6.39108 6.61548L8.91095 9.4471C8.92414 9.46452 8.96183 9.46452 8.98634 9.46645C9.05984 9.47226 9.13523 9.47613 9.20873 9.47806C9.23889 9.47806 9.28035 9.48581 9.2992 9.47032C9.64033 9.15871 9.97581 8.83742 10.3226 8.53355C10.513 8.36516 10.5243 8.52 10.5959 8.59935C10.6713 8.68452 10.5789 8.78129 10.5525 8.80452C10.1662 9.16452 9.77603 9.52258 9.38967 9.88258C9.38213 9.88839 9.37836 9.89613 9.37459 9.90387L8.28711 11.0206C8.2758 11.0226 8.26449 11.0265 8.26072 11.0323C7.88566 11.4561 7.51437 11.8858 7.13743 12.3097C7.11481 12.3368 7.02058 12.4316 6.93765 12.3542C6.86037 12.2826 6.7096 12.269 6.87357 12.0735C7.17135 11.7174 7.48233 11.3748 7.78577 11.0226C7.80273 11.0032 7.79519 10.9606 7.79331 10.9297C7.79142 10.8542 7.78766 10.7768 7.782 10.7013C7.78012 10.6761 7.77635 10.6413 7.75938 10.6277C6.38166 9.53226 5.06989 8.36129 3.92021 7.01419C3.45846 6.47419 3.07209 5.86839 2.63107 5.31097H2.63295C2.48029 5.11742 2.30313 4.93935 2.12031 4.77097L3.0834 3.78194C3.70536 4.29484 4.34239 4.79226 4.96435 5.30516ZM1.52097 3.10645C1.80933 3.19548 2.09392 3.30387 2.38794 3.36194C2.47275 3.37935 2.58206 3.24774 2.68572 3.19742C2.763 3.16065 2.84781 3.14323 2.92885 3.11613C2.91566 3.19935 2.8855 3.28452 2.89116 3.36581C2.89681 3.45097 2.89681 3.56323 2.92697 3.6329L1.95257 4.63355C1.88472 4.60839 1.78671 4.60839 1.70944 4.60258H1.71132C1.63217 4.59871 1.54924 4.62968 1.4682 4.64323C1.49458 4.56 1.51154 4.47097 1.54735 4.39355C1.57562 4.33355 1.6284 4.27161 1.66609 4.21161C1.74336 3.86129 1.50024 3.53419 1.4305 3.19548C1.42296 3.15871 1.41731 3.12387 1.41165 3.0871C1.44746 3.0929 1.48516 3.09677 1.52097 3.10645Z" fill="url(#paint0_linear_2254_967)"/>
  <defs>
    <linearGradient id="paint0_linear_2254_967" x1="24" y1="2.62983e-06" x2="0.0280218" y2="24.028" gradientUnits="userSpaceOnUse">
      <stop stop-color="#8E642D"/>
      <stop offset="1" stop-color="#ECA64B"/>
    </linearGradient>
  </defs>
</svg>